<svg width="47" height="47" viewBox="0 0 47 47" fill="none" xmlns="http://www.w3.org/2000/svg">
<path fill-rule="evenodd" clip-rule="evenodd" d="M23.0579 0.929565C35.7604 0.929565 46.0579 11.227 46.0579 23.9296C46.0579 36.6321 35.7604 46.9296 23.0579 46.9296C10.3553 46.9296 0.0578613 36.6321 0.0578613 23.9296C0.0578613 11.227 10.3553 0.929565 23.0579 0.929565ZM23.4602 14.6249C25.2362 14.6249 26.7545 15.2551 28.0149 16.5155C29.2467 17.7473 29.8625 19.2512 29.8625 21.0272C29.8625 21.9152 29.6334 22.9465 29.175 24.121C28.7167 25.2955 28.2154 26.3553 27.6711 27.3007C27.0982 28.2173 26.4394 29.177 25.6946 30.1796C24.9498 31.1535 24.4342 31.8124 24.1477 32.1561C23.8612 32.4712 23.6321 32.729 23.4602 32.9296L22.7727 32.1991C22.343 31.6835 21.8274 30.996 21.2258 30.1366C20.5956 29.2486 19.9654 28.3033 19.3352 27.3007C18.705 26.2981 18.175 25.2238 17.7454 24.078C17.287 22.9322 17.0579 21.9152 17.0579 21.0272C17.0579 19.2512 17.6881 17.7473 18.9485 16.5155C20.1803 15.2551 21.6842 14.6249 23.4602 14.6249ZM25.093 22.66C24.6347 23.0897 24.0904 23.3046 23.4602 23.3046C22.83 23.3046 22.3 23.0897 21.8704 22.66C21.412 22.2017 21.1829 21.6574 21.1829 21.0272C21.1829 20.397 21.412 19.8671 21.8704 19.4374C22.3 18.979 22.83 18.7499 23.4602 18.7499C24.0904 18.7499 24.6347 18.979 25.093 19.4374C25.5227 19.8671 25.7375 20.397 25.7375 21.0272C25.7375 21.6574 25.5227 22.2017 25.093 22.66Z" fill="#00BF96"/>
</svg>
