<svg width="47" height="48" viewBox="0 0 47 48" fill="none" xmlns="http://www.w3.org/2000/svg">
<path d="M27.7385 23.5295L22.3574 21.0186C21.8878 20.8006 21.5021 21.045 21.5021 21.5649V26.2943C21.5021 26.8142 21.8878 27.0585 22.3574 26.8405L27.7361 24.3297C28.2081 24.1093 28.2081 23.7499 27.7385 23.5295ZM23.8979 0.929565C11.1952 0.929565 0.897949 11.2269 0.897949 23.9296C0.897949 36.6323 11.1952 46.9296 23.8979 46.9296C36.6007 46.9296 46.8979 36.6323 46.8979 23.9296C46.8979 11.2269 36.6007 0.929565 23.8979 0.929565ZM23.8979 33.2733C12.1248 33.2733 11.9188 32.212 11.9188 23.9296C11.9188 15.6472 12.1248 14.5858 23.8979 14.5858C35.6711 14.5858 35.8771 15.6472 35.8771 23.9296C35.8771 32.212 35.6711 33.2733 23.8979 33.2733Z" fill="#FF3000"/>
</svg>
