<svg width="47" height="47" viewBox="0 0 47 47" fill="none" xmlns="http://www.w3.org/2000/svg">
<path d="M17.3965 18.7091H13.3063C12.9226 18.7091 12.6113 19.0203 12.6113 19.404C12.6113 19.7877 12.9226 20.099 13.3063 20.099H14.6383V24.9929C14.6383 25.1739 14.7107 25.3476 14.841 25.4707C14.9641 25.5937 15.1378 25.6661 15.3188 25.6661H15.4708C15.6518 25.6661 15.8256 25.5937 15.9486 25.4707C16.0789 25.3404 16.1513 25.1666 16.1513 24.9929V20.099H17.4038C17.7875 20.099 18.0987 19.7877 18.0987 19.404C18.0915 19.0203 17.7802 18.7091 17.3965 18.7091Z" fill="#391B1B"/>
<path d="M27.2132 24.363H25.3164V19.3606C25.3164 18.9407 24.9762 18.6077 24.5635 18.6077C24.1437 18.6077 23.8106 18.948 23.8106 19.3606V24.7467C23.8106 24.7846 23.8162 24.817 23.8224 24.8536C23.8233 24.8589 23.8242 24.8643 23.8251 24.8698C23.8179 24.906 23.8106 24.9494 23.8106 24.9929C23.8106 25.3404 24.093 25.6227 24.4405 25.6227H27.2132C27.5607 25.6227 27.843 25.3404 27.843 24.9929C27.843 24.6454 27.5607 24.363 27.2132 24.363Z" fill="#391B1B"/>
<path d="M33.287 24.5947L31.1659 21.8148L33.0771 19.9036C33.3377 19.6429 33.3377 19.2231 33.0771 18.9624C32.8165 18.7018 32.3966 18.7018 32.136 18.9624L29.7687 21.3297V19.3678C29.7687 18.948 29.4284 18.6149 29.0158 18.6149C28.5959 18.6149 28.2629 18.9552 28.2629 19.3678V24.9205C28.2629 25.3404 28.6031 25.6734 29.0158 25.6734C29.4357 25.6734 29.7687 25.3331 29.7687 24.9205V23.2047L30.1958 22.7776L32.2011 25.4055C32.4256 25.7023 32.8454 25.7675 33.1423 25.5431C33.4535 25.3114 33.5115 24.8915 33.287 24.5947Z" fill="#391B1B"/>
<path d="M23.2387 24.7757L21.2045 19.2013L21.1972 19.1941C21.0669 18.8538 20.6905 18.6077 20.2416 18.6077C19.7421 18.6077 19.3367 18.9118 19.2498 19.3099C19.2353 19.3389 19.2209 19.3678 19.2136 19.404L17.2083 24.7757C17.0852 25.1304 17.2735 25.5141 17.6209 25.6372C17.9757 25.7602 18.3594 25.572 18.4824 25.2245L18.8299 24.2327H21.6171L21.9646 25.2245C22.0877 25.5793 22.4714 25.7602 22.8261 25.6372C23.1808 25.5069 23.3618 25.1232 23.2387 24.7757ZM19.2788 22.9658L20.2127 20.2945C20.2199 20.2945 20.2344 20.2945 20.2416 20.2945L21.1755 22.9658H19.2788Z" fill="#391B1B"/>
<path fill-rule="evenodd" clip-rule="evenodd" d="M46.0579 23.9296C46.0579 36.6321 35.7604 46.9296 23.0579 46.9296C10.3553 46.9296 0.0578613 36.6321 0.0578613 23.9296C0.0578613 11.227 10.3553 0.929565 23.0579 0.929565C35.7604 0.929565 46.0579 11.227 46.0579 23.9296ZM23.0143 10.9122C15.2971 10.9122 9.04224 15.8567 9.04224 21.9596C9.04224 25.934 11.6919 29.4089 15.6735 31.3563C15.5908 31.6687 15.4691 32.1252 15.3338 32.6324C14.9957 33.9003 14.5731 35.4849 14.4646 35.9244C14.2763 36.6845 14.7469 36.6773 15.051 36.4673C15.2899 36.3081 18.8806 33.8684 20.4298 32.8114C21.2696 32.9345 22.1383 32.9997 23.0215 32.9997C30.7388 32.9997 36.9936 28.0551 36.9936 21.9523C36.9936 15.8567 30.7315 10.9122 23.0143 10.9122ZM13.3063 18.7091H17.3965C17.7802 18.7091 18.0915 19.0203 18.0987 19.404C18.0987 19.7877 17.7875 20.099 17.4038 20.099H16.1513V24.9929C16.1513 25.1666 16.0789 25.3404 15.9486 25.4707C15.8256 25.5937 15.6518 25.6661 15.4708 25.6661H15.3188C15.1378 25.6661 14.9641 25.5937 14.841 25.4707C14.7107 25.3476 14.6383 25.1739 14.6383 24.9929V20.099H13.3063C12.9226 20.099 12.6113 19.7877 12.6113 19.404C12.6113 19.0203 12.9226 18.7091 13.3063 18.7091ZM25.3164 24.363H27.2132C27.5607 24.363 27.843 24.6454 27.843 24.9929C27.843 25.3404 27.5607 25.6227 27.2132 25.6227H24.4405C24.093 25.6227 23.8106 25.3404 23.8106 24.9929C23.8106 24.9494 23.8179 24.906 23.8251 24.8698L23.8224 24.8536C23.8162 24.817 23.8106 24.7846 23.8106 24.7467V19.3606C23.8106 18.948 24.1437 18.6077 24.5635 18.6077C24.9762 18.6077 25.3164 18.9407 25.3164 19.3606V24.363ZM33.287 24.5947C33.5115 24.8915 33.4535 25.3114 33.1423 25.5431C32.8454 25.7675 32.4256 25.7023 32.2011 25.4055L30.1958 22.7776L29.7687 23.2047V24.9205C29.7687 25.3331 29.4357 25.6734 29.0158 25.6734C28.6031 25.6734 28.2629 25.3404 28.2629 24.9205V19.3678C28.2629 18.9552 28.5959 18.6149 29.0158 18.6149C29.4284 18.6149 29.7687 18.948 29.7687 19.3678V21.3297L32.136 18.9624C32.3966 18.7018 32.8165 18.7018 33.0771 18.9624C33.3377 19.2231 33.3377 19.6429 33.0771 19.9036L31.1659 21.8148L33.287 24.5947ZM21.2045 19.2013L23.2387 24.7757C23.3618 25.1232 23.1808 25.5069 22.8261 25.6372C22.4714 25.7602 22.0877 25.5793 21.9646 25.2245L21.6171 24.2327H18.8299L18.4824 25.2245C18.3594 25.572 17.9757 25.7602 17.6209 25.6372C17.2735 25.5141 17.0852 25.1304 17.2083 24.7757L19.2136 19.404C19.2209 19.3678 19.2353 19.3389 19.2498 19.3099C19.3367 18.9118 19.7421 18.6077 20.2416 18.6077C20.6905 18.6077 21.0669 18.8538 21.1972 19.1941L21.2045 19.2013ZM20.2127 20.2945L19.2788 22.9658H21.1755L20.2416 20.2945H20.2127Z" fill="#FAE300"/>
<path fill-rule="evenodd" clip-rule="evenodd" d="M23.0143 10.9122C15.2971 10.9122 9.04224 15.8567 9.04224 21.9596C9.04224 25.934 11.6919 29.4089 15.6735 31.3563C15.5908 31.6687 15.4691 32.1252 15.3338 32.6324C14.9957 33.9003 14.5731 35.4849 14.4646 35.9244C14.2763 36.6845 14.7469 36.6773 15.051 36.4673C15.2899 36.3081 18.8806 33.8684 20.4298 32.8114C21.2696 32.9345 22.1383 32.9997 23.0215 32.9997C30.7388 32.9997 36.9936 28.0551 36.9936 21.9523C36.9936 15.8567 30.7315 10.9122 23.0143 10.9122ZM13.3063 18.7091H17.3965C17.7802 18.7091 18.0915 19.0203 18.0987 19.404C18.0987 19.7877 17.7875 20.099 17.4038 20.099H16.1513V24.9929C16.1513 25.1666 16.0789 25.3404 15.9486 25.4707C15.8256 25.5937 15.6518 25.6661 15.4708 25.6661H15.3188C15.1378 25.6661 14.9641 25.5937 14.841 25.4707C14.7107 25.3476 14.6383 25.1739 14.6383 24.9929V20.099H13.3063C12.9226 20.099 12.6113 19.7877 12.6113 19.404C12.6113 19.0203 12.9226 18.7091 13.3063 18.7091ZM25.3164 24.363H27.2132C27.5607 24.363 27.843 24.6454 27.843 24.9929C27.843 25.3404 27.5607 25.6227 27.2132 25.6227H24.4405C24.093 25.6227 23.8106 25.3404 23.8106 24.9929C23.8106 24.9494 23.8179 24.906 23.8251 24.8698L23.8224 24.8536C23.8162 24.817 23.8106 24.7846 23.8106 24.7467V19.3606C23.8106 18.948 24.1437 18.6077 24.5635 18.6077C24.9762 18.6077 25.3164 18.9407 25.3164 19.3606V24.363ZM31.1659 21.8148L33.287 24.5947C33.5115 24.8915 33.4535 25.3114 33.1423 25.5431C32.8454 25.7675 32.4256 25.7023 32.2011 25.4055L30.1958 22.7776L29.7687 23.2047V24.9205C29.7687 25.3331 29.4357 25.6734 29.0158 25.6734C28.6031 25.6734 28.2629 25.3404 28.2629 24.9205V19.3678C28.2629 18.9552 28.5959 18.6149 29.0158 18.6149C29.4284 18.6149 29.7687 18.948 29.7687 19.3678V21.3297L32.136 18.9624C32.3966 18.7018 32.8165 18.7018 33.0771 18.9624C33.3377 19.2231 33.3377 19.6429 33.0771 19.9036L31.1659 21.8148ZM21.2045 19.2013L23.2387 24.7757C23.3618 25.1232 23.1808 25.5069 22.8261 25.6372C22.4714 25.7602 22.0877 25.5793 21.9646 25.2245L21.6171 24.2327H18.8299L18.4824 25.2245C18.3594 25.572 17.9757 25.7602 17.6209 25.6372C17.2735 25.5141 17.0852 25.1304 17.2083 24.7757L19.2136 19.404C19.2209 19.3678 19.2353 19.3389 19.2498 19.3099C19.3367 18.9118 19.7421 18.6077 20.2416 18.6077C20.6905 18.6077 21.0669 18.8538 21.1972 19.1941L21.2045 19.2013Z" fill="#391B1B"/>
<path d="M19.2788 22.9658L20.2127 20.2945H20.2416L21.1755 22.9658H19.2788Z" fill="#391B1B"/>
</svg>
