<svg width="47" height="47" viewBox="0 0 47 47" fill="none" xmlns="http://www.w3.org/2000/svg">
<path d="M46.0579 23.9296C46.0579 36.6321 35.7604 46.9296 23.0579 46.9296C10.3553 46.9296 0.0578613 36.6321 0.0578613 23.9296C0.0578613 11.227 10.3553 0.929565 23.0579 0.929565C35.7604 0.929565 46.0579 11.227 46.0579 23.9296Z" fill="#2EB34A"/>
<path d="M32.6367 11.9296H13.4803C11.0379 11.9296 9.05786 13.9762 9.05786 16.5019V27.3489C9.05786 29.8746 11.0379 31.9212 13.4803 31.9212H20.0787L22.3304 35.6984C22.3304 35.6984 22.3552 35.7428 22.4035 35.806C22.5354 36.0388 22.7784 36.1962 23.0579 36.1962C23.3374 36.1962 23.5777 36.0401 23.7096 35.81C23.7658 35.7414 23.7854 35.697 23.7854 35.697L26.0371 31.9199H32.6354C35.0778 31.9199 37.0579 29.8732 37.0579 27.3475V16.5019C37.0579 13.9762 35.0778 11.9296 32.6354 11.9296H32.6367Z" fill="white"/>
<path d="M15.2762 19.8781C15.2762 19.8781 14.5121 19.8781 13.8186 20.5737V17.7735H12.1037V25.1313H13.8355V24.5554C13.8355 24.5554 14.2444 25.3157 15.2749 25.3157C15.2749 25.3157 17.6911 25.2242 17.6911 22.5693C17.6911 22.5693 17.6023 19.8781 15.2749 19.8781H15.2762ZM14.8987 23.7615C14.2901 23.7615 13.7964 23.2528 13.7964 22.6258C13.7964 21.9987 14.2901 21.4914 14.8987 21.4914C15.5073 21.4914 15.9997 22.0001 15.9997 22.6258C15.9997 23.2515 15.506 23.7615 14.8987 23.7615Z" fill="#F47627"/>
<path d="M18.2436 17.608V19.3102C18.2436 19.3102 19.026 19.2739 19.026 20.7742V25.13H20.6782V20.3719C20.6782 20.3719 20.7487 17.608 18.2436 17.608Z" fill="#F47627"/>
<path d="M24.7179 19.9009C24.7179 19.9009 21.885 19.9009 21.885 22.6258C21.885 22.6258 21.7936 25.3143 24.7179 25.3143C24.7179 25.3143 27.6161 25.3103 27.6161 22.6258C27.6161 22.6258 27.7102 19.9009 24.7179 19.9009ZM24.7179 23.7615C24.1093 23.7615 23.6156 23.2528 23.6156 22.6258C23.6156 21.9987 24.1093 21.4914 24.7179 21.4914C25.3265 21.4914 25.8189 22.0001 25.8189 22.6258C25.8189 23.2515 25.3252 23.7615 24.7179 23.7615Z" fill="#F47627"/>
<path d="M32.3455 20.0786V20.5724C32.3455 20.5724 31.8531 19.8996 30.9075 19.8996C30.9075 19.8996 28.4821 19.7946 28.4821 22.6056C28.4821 22.6056 28.4546 25.2255 30.8409 25.2255C30.8409 25.2255 31.8139 25.2659 32.3455 24.5527V24.9645C32.3455 24.9645 32.4656 26.2549 31.2536 26.2549H30.8409V27.8198H31.507C31.507 27.8198 34.0121 27.8481 34.0121 25.0613V20.0786H32.3455ZM31.3215 23.7601C30.7129 23.7601 30.2205 23.2515 30.2205 22.6244C30.2205 21.9974 30.7129 21.4901 31.3215 21.4901C31.9301 21.4901 32.4225 21.9987 32.4225 22.6244C32.4225 23.2502 31.9288 23.7601 31.3215 23.7601Z" fill="#F47627"/>
</svg>
