<svg width="47" height="47" viewBox="0 0 47 47" fill="none" xmlns="http://www.w3.org/2000/svg">
<path fill-rule="evenodd" clip-rule="evenodd" d="M46.0579 23.9296C46.0579 36.6321 35.7604 46.9296 23.0579 46.9296C10.3553 46.9296 0.0578613 36.6321 0.0578613 23.9296C0.0578613 11.227 10.3553 0.929565 23.0579 0.929565C35.7604 0.929565 46.0579 11.227 46.0579 23.9296ZM13.1069 20.116C15.2966 20.116 17.0718 18.3409 17.0718 16.1511C17.0718 13.9614 15.2966 12.1863 13.1069 12.1863C10.9172 12.1863 9.14203 13.9614 9.14203 16.1511C9.14203 18.3409 10.9172 20.116 13.1069 20.116ZM27.0228 16.1511C27.0228 18.3409 25.2477 20.116 23.0579 20.116C20.8682 20.116 19.0931 18.3409 19.0931 16.1511C19.0931 13.9614 20.8682 12.1863 23.0579 12.1863C25.2477 12.1863 27.0228 13.9614 27.0228 16.1511ZM33.0089 20.116C35.1986 20.116 36.9738 18.3409 36.9738 16.1511C36.9738 13.9614 35.1986 12.1863 33.0089 12.1863C30.8192 12.1863 29.044 13.9614 29.044 16.1511C29.044 18.3409 30.8192 20.116 33.0089 20.116ZM27.0228 26.1022C27.0228 28.2919 25.2477 30.067 23.0579 30.067C20.8682 30.067 19.0931 28.2919 19.0931 26.1022C19.0931 23.9124 20.8682 22.1373 23.0579 22.1373C25.2477 22.1373 27.0228 23.9124 27.0228 26.1022ZM23.0579 40.0181C25.2477 40.0181 27.0228 38.243 27.0228 36.0532C27.0228 33.8635 25.2477 32.0884 23.0579 32.0884C20.8682 32.0884 19.0931 33.8635 19.0931 36.0532C19.0931 38.243 20.8682 40.0181 23.0579 40.0181Z" fill="#EA5220"/>
</svg>
