<svg width="150" height="150" viewBox="0 0 150 150" fill="none" xmlns="http://www.w3.org/2000/svg">
<path d="M109.051 42.6108C108.963 42.2017 108.759 41.8267 108.463 41.5308C108.168 41.2349 107.792 41.0307 107.383 40.9429C102.981 39.9995 99.537 39.9995 96.1054 39.9995C81.996 39.9995 73.5331 47.5464 67.2181 57.4995H52.972C51.7554 57.5005 50.5629 57.8398 49.5279 58.4793C48.4929 59.1189 47.6561 60.0335 47.1109 61.1212L40.3542 74.629C40.1047 75.1294 39.9872 75.6852 40.0129 76.2438C40.0385 76.8024 40.2065 77.3451 40.5008 77.8205C40.7952 78.2959 41.2061 78.6882 41.6947 78.9602C42.1832 79.2322 42.7332 79.3748 43.2923 79.3745H57.4796L54.4076 82.4466C53.5873 83.267 53.1265 84.3797 53.1265 85.5398C53.1265 86.7 53.5873 87.8127 54.4076 88.6331L61.3665 95.5935C61.7728 95.9998 62.2551 96.3222 62.786 96.5421C63.3169 96.762 63.8859 96.8752 64.4605 96.8752C65.0351 96.8752 65.6041 96.762 66.135 96.5421C66.6658 96.3222 67.1482 95.9998 67.5544 95.5935L70.6265 92.5214V106.718C70.6263 107.277 70.769 107.827 71.0409 108.315C71.3128 108.804 71.7049 109.215 72.1801 109.509C72.6553 109.803 73.1979 109.971 73.7562 109.997C74.3146 110.023 74.8703 109.906 75.3706 109.656L88.8648 102.904C89.9542 102.36 90.8704 101.522 91.5104 100.486C92.1503 99.4503 92.4888 98.2564 92.4878 97.0386V82.7638C102.412 76.4337 109.988 67.9435 109.988 53.9038C110.001 50.4585 110.001 47.0132 109.051 42.6108ZM92.5015 62.9683C91.4199 62.9683 90.3626 62.6475 89.4632 62.0466C88.5639 61.4457 87.8629 60.5916 87.449 59.5923C87.0351 58.593 86.9268 57.4934 87.1378 56.4326C87.3488 55.3718 87.8697 54.3973 88.6345 53.6325C89.3993 52.8677 90.3738 52.3469 91.4346 52.1358C92.4954 51.9248 93.595 52.0331 94.5943 52.447C95.5936 52.861 96.4477 53.5619 97.0486 54.4612C97.6495 55.3606 97.9702 56.4179 97.9702 57.4995C97.9702 58.9499 97.3941 60.3409 96.3685 61.3665C95.3429 62.3921 93.9519 62.9683 92.5015 62.9683Z" fill="url(#paint0_linear_256_615)"/>
<rect x="4" y="4" width="142" height="142" rx="71" stroke="url(#paint1_linear_256_615)" stroke-width="8"/>
<defs>
<linearGradient id="paint0_linear_256_615" x1="55.6584" y1="55.4588" x2="110.495" y2="107.267" gradientUnits="userSpaceOnUse">
<stop stop-color="#05CD82"/>
<stop offset="1" stop-color="#000EFF"/>
</linearGradient>
<linearGradient id="paint1_linear_256_615" x1="33.5426" y1="33.1266" x2="151.05" y2="144.176" gradientUnits="userSpaceOnUse">
<stop stop-color="#05CD82"/>
<stop offset="1" stop-color="#000EFF"/>
</linearGradient>
</defs>
</svg>
