<svg width="417" height="160" viewBox="0 0 417 160" fill="none" xmlns="http://www.w3.org/2000/svg">
<path d="M40.1067 61.9213V98.9515L65.5946 113.67V76.279L40.1067 61.9213Z" fill="#87E7C3"/>
<path fill-rule="evenodd" clip-rule="evenodd" d="M243.404 119.321H164.761V40.6785H243.404V55.8152H228.267H211.649H196.522H179.895V104.184H228.267H243.404V119.321Z" fill="#05CD82"/>
<path d="M0 38.0901V122.118L59.7908 156.647L65.5937 159.999V122.602L65.5947 122.602L32.371 103.42V57.0573L32.3018 57.0173L0 38.0901Z" fill="#87E7C3"/>
<path d="M131.027 75L130.901 38.0891L99.0838 57.1708L90.9102 61.8344L90.9612 61.8639L65.5946 76.279V84.5938V113.67L91.0202 99.1183L98.8174 94.6557V103.42L65.5947 122.602L65.5955 122.604V159.998L131.188 122.118L131.027 75Z" fill="#001D0B"/>
<path d="M65.5946 47.2025L40.1067 61.9213L65.5946 76.279L90.9102 61.8344L65.5946 47.2025Z" fill="#05CD82"/>
<path d="M130.901 38.0891L65.4571 0L0 38.0901L32.3018 57.0173V56.89L65.4571 37.6019L99.0838 57.1708L130.901 38.0891Z" fill="#05CD82"/>
<path fill-rule="evenodd" clip-rule="evenodd" d="M251.438 119.318V90.0588L265.601 75.8955L251.404 61.957L251.438 40.6865C253.471 40.6865 273.303 40.684 290.793 40.6818L291.191 40.6817C304.778 40.68 322.171 40.6785 323.231 40.6785V66.6848H307.747V56.041L268.074 56.041L307.87 94.1988L308.038 79.8892H323.231V104.292L330.044 104.385V119.318H323.231H251.438ZM266.736 96.1816L277.01 85.9081L296.763 104.385L266.736 104.292V96.1816Z" fill="#87E7C3"/>
<path d="M338.044 119.321H416.686V104.184V72.4328H401.549H384.932V87.5665H401.549V104.184H353.177V55.8152H369.804H384.932H401.549H416.686V40.6785H338.044V119.321Z" fill="#00BACC"/>
</svg>
