<svg width="150" height="150" viewBox="0 0 150 150" fill="none" xmlns="http://www.w3.org/2000/svg">
<path d="M108.515 94.0962L92.5049 78.0864C89.3467 74.9282 84.6299 74.313 80.8291 76.186L66.2549 61.6118V53.1216L48.7549 39.9966L40.0049 48.7466L53.1299 66.2466H61.6201L76.1943 80.8208C74.335 84.6216 74.9365 89.3384 78.0947 92.4966L94.1045 108.506C96.1006 110.502 99.3271 110.502 101.31 108.506L108.515 101.301C110.497 99.3052 110.497 96.0786 108.515 94.0962ZM85.3545 70.7583C89.2236 70.7583 92.8604 72.2622 95.5947 74.9966L98.2471 77.6489C100.407 76.7056 102.458 75.3931 104.235 73.6157C109.308 68.5435 111.03 61.4067 109.417 54.9263C109.116 53.6958 107.571 53.272 106.669 54.1743L96.4971 64.3462L87.2139 62.8013L85.6689 53.5181L95.8408 43.3462C96.7432 42.4438 96.3057 40.8989 95.0615 40.5845C88.5811 38.9849 81.4443 40.7075 76.3857 45.7661C72.4893 49.6626 70.6572 54.8032 70.7529 59.9302L81.9775 71.1548C83.085 70.895 84.2334 70.7583 85.3545 70.7583ZM71.1494 81.9692L63.3975 74.2173L42.5615 95.0669C39.1436 98.4849 39.1436 104.022 42.5615 107.44C45.9795 110.858 51.5166 110.858 54.9346 107.44L71.833 90.5415C70.7939 87.8208 70.4795 84.854 71.1494 81.9692ZM48.7549 104.528C46.9502 104.528 45.4736 103.051 45.4736 101.247C45.4736 99.4282 46.9365 97.9653 48.7549 97.9653C50.5732 97.9653 52.0361 99.4282 52.0361 101.247C52.0361 103.051 50.5732 104.528 48.7549 104.528Z" fill="url(#paint0_linear_256_620)"/>
<rect x="4" y="4" width="142" height="142" rx="71" stroke="url(#paint1_linear_256_620)" stroke-width="8"/>
<defs>
<linearGradient id="paint0_linear_256_620" x1="55.6521" y1="55.4571" x2="110.494" y2="107.283" gradientUnits="userSpaceOnUse">
<stop stop-color="#05CD82"/>
<stop offset="1" stop-color="#000EFF"/>
</linearGradient>
<linearGradient id="paint1_linear_256_620" x1="33.5426" y1="33.1266" x2="151.05" y2="144.176" gradientUnits="userSpaceOnUse">
<stop stop-color="#05CD82"/>
<stop offset="1" stop-color="#000EFF"/>
</linearGradient>
</defs>
</svg>
