<svg width="150" height="150" viewBox="0 0 150 150" fill="none" xmlns="http://www.w3.org/2000/svg">
<path d="M62.75 29.5C56.1 29.5 50.5 35.1 50.5 41.75C50.5 48.4 56.1 54 62.75 54C67.51 54 71.675 51.074 73.6875 47H96L99.5 43.5V40L96 36.5H92.5L89.6545 39.3455L87.25 36.5H84.4045L82.329 38.579L79.921 36.5H73.6875C71.6715 32.426 67.5135 29.5 62.75 29.5ZM59.25 38.25C61.35 38.25 62.75 39.65 62.75 41.75C62.75 43.85 61.35 45.25 59.25 45.25C57.15 45.25 55.75 43.85 55.75 41.75C55.75 39.65 57.15 38.25 59.25 38.25ZM61.329 61C58.2145 61.0101 55.1896 62.0432 52.7195 63.9403C50.2495 65.8374 48.4711 68.4935 47.658 71.5L45.138 82H43.5C41.4 82 40 83.4 40 85.5V89C40 91.1 41.4 92.5 43.5 92.5V117C43.5 119.1 44.9 120.5 47 120.5H54C56.1 120.5 57.5 119.1 57.5 117V113.5H92.5V117C92.5 119.1 93.9 120.5 96 120.5H103C105.1 120.5 106.5 119.1 106.5 117V92.5C108.6 92.5 110 91.1 110 89V85.5C110 83.4 108.6 82 106.5 82H104.859L102.345 71.5C100.595 65.2 94.971 61 88.671 61H61.329ZM61.329 68H88.671C91.821 68 94.6455 70.1 95.3455 73.25L98.296 85.5H51.704L54.6545 73.25C55.3545 70.1 58.179 68 61.329 68ZM55.75 96C58.55 96 61 98.45 61 101.25C61 104.05 58.55 106.5 55.75 106.5C52.95 106.5 50.5 104.05 50.5 101.25C50.5 98.45 52.95 96 55.75 96ZM94.25 96C97.05 96 99.5 98.45 99.5 101.25C99.5 104.05 97.05 106.5 94.25 106.5C91.45 106.5 89 104.05 89 101.25C89 98.45 91.45 96 94.25 96Z" fill="url(#paint0_linear_256_625)"/>
<rect x="4" y="4" width="142" height="142" rx="71" stroke="url(#paint1_linear_256_625)" stroke-width="8"/>
<defs>
<linearGradient id="paint0_linear_256_625" x1="55.6532" y1="49.5968" x2="123.572" y2="98.971" gradientUnits="userSpaceOnUse">
<stop stop-color="#05CD82"/>
<stop offset="1" stop-color="#000EFF"/>
</linearGradient>
<linearGradient id="paint1_linear_256_625" x1="33.5426" y1="33.1266" x2="151.05" y2="144.176" gradientUnits="userSpaceOnUse">
<stop stop-color="#05CD82"/>
<stop offset="1" stop-color="#000EFF"/>
</linearGradient>
</defs>
</svg>
