<svg width="60" height="44" viewBox="0 0 60 44" fill="none" xmlns="http://www.w3.org/2000/svg">
<path d="M16.6667 0H10C4.48578 0 0 4.17301 0 9.30277V15.5046C0 20.6344 4.48578 24.8074 10 24.8074H16.6667C17.7369 24.8074 18.7489 24.6091 19.7164 24.3178C18.3724 31.6213 11.5647 37.2111 3.33333 37.2111C1.49089 37.2111 0 38.598 0 40.312C0 42.026 1.49089 43.4129 3.33333 43.4129C16.198 43.4129 26.6667 33.6742 26.6667 21.7065V9.30277C26.6667 4.17301 22.1809 0 16.6667 0ZM50 0H43.3333C37.8191 0 33.3333 4.17301 33.3333 9.30277V15.5046C33.3333 20.6344 37.8191 24.8074 43.3333 24.8074H50C51.0702 24.8074 52.0822 24.6091 53.0498 24.3178C51.7058 31.6213 44.898 37.2111 36.6667 37.2111C34.8242 37.2111 33.3333 38.598 33.3333 40.312C33.3333 42.026 34.8242 43.4129 36.6667 43.4129C49.5313 43.4129 60 33.6742 60 21.7065V9.30277C60 4.17301 55.5142 0 50 0Z" fill="#00BF96"/>
</svg>
