<svg width="419" height="160" viewBox="0 0 419 160" fill="none" xmlns="http://www.w3.org/2000/svg">
<path d="M65.3369 37.6019V0L130.662 38.0891V75.6864L65.3369 37.6019Z" fill="white"/>
<path d="M65.3371 113.939L130.662 76.1112V38.7878L65.3371 76.6005V113.939Z" fill="white"/>
<path d="M32.2432 56.89V103.507L0 122.302V38.0901L65.3369 0V37.6019L32.2432 56.89Z" fill="white"/>
<path d="M3.89843 124.367L36.0061 105.559L65.4756 122.604V160L3.89843 124.367Z" fill="white"/>
<path d="M32.3122 103.42V57.0573L0 38.3648V122.118L65.4756 160V122.604L32.3122 103.42Z" fill="white"/>
<path d="M40.0339 99.3295V61.9213L65.4755 47.2025V84.5938L40.0339 99.3295Z" fill="white"/>
<path d="M65.4755 47.2025L65.4756 84.6107L90.9172 99.3295V61.9382L65.4755 47.2025Z" fill="white"/>
<path d="M40.0339 61.5434V98.9515L65.4755 113.67V76.279L40.0339 61.5434Z" fill="white"/>
<path d="M90.9173 61.5434V98.9515L65.4755 113.67V76.279L90.9173 61.5434Z" fill="white"/>
<path d="M98.639 103.42V57.0573L130.951 38.3648V122.118L65.4756 160V122.604L98.639 103.42Z" fill="white"/>
<path d="M241.946 40.6788V119.321H226.779V110.389L217.863 114.993L209.866 96.4836C207.843 102.316 205.208 106.797 201.96 109.928C198.713 113.121 194.729 115.024 190.011 115.638H189.919V115.361L183.944 97.8649C181.922 103.267 179.318 107.442 176.131 110.389C172.944 113.336 169.084 115.085 164.549 115.638V99.7067C168.716 98.7244 171.658 93.3526 173.373 83.5914C175.15 73.7688 176.039 59.9864 176.039 42.2443L190.47 42.7968C190.348 56.3029 189.796 67.3841 188.816 76.0403L195.71 94.5498C197.732 90.191 199.172 83.6221 200.03 74.8431C200.949 66.0641 201.409 55.1979 201.409 42.2443L215.84 42.7968C215.718 56.3029 215.166 67.3841 214.186 76.0403L226.779 102.838V40.6788H241.946Z" fill="white"/>
<path d="M292.034 71.6201C291.115 77.3909 289.031 81.8417 285.784 84.9727C282.536 88.0423 278.369 89.5771 273.282 89.5771C267.277 89.5771 262.558 87.4591 259.127 83.2231C255.756 78.9257 254.071 72.8786 254.071 65.0819C254.071 57.2852 255.756 51.2688 259.127 47.0328C262.558 42.7968 267.277 40.6788 273.282 40.6788C278.185 40.6788 282.229 42.1215 285.416 45.0069C288.664 47.8309 290.808 51.9441 291.85 57.3466H297.825V41.0471H312.165V97.5886H297.825V71.6201H292.034ZM332.111 98.9699H317.588V40.6788H332.111V98.9699ZM268.319 65.0819C268.319 72.94 269.973 76.869 273.282 76.869C276.592 76.869 278.246 72.94 278.246 65.0819C278.246 57.2852 276.592 53.3868 273.282 53.3868C269.973 53.3868 268.319 57.2852 268.319 65.0819ZM333.03 105.324V119.321H260.781V93.1685H276.591V105.324H333.03Z" fill="white"/>
<path d="M418.324 40.6788V119.321H402.79V40.6788H418.324ZM379.35 56.794C379.166 63.8541 378.523 70.3922 377.42 76.4086L400.216 106.061L387.899 115.269L372.088 93.721C368.902 100.72 364.857 106.091 359.955 109.836C355.114 113.643 349.721 115.576 343.777 115.638V99.9829C347.576 99.5532 350.947 97.5273 353.888 93.9052C356.83 90.2217 359.158 85.1876 360.874 78.8029C362.59 72.4182 363.54 65.0819 363.724 56.794H345.983V42.5205H396.171V56.794H379.35Z" fill="white"/>
</svg>
