<svg width="47" height="47" viewBox="0 0 47 47" fill="none" xmlns="http://www.w3.org/2000/svg">
<path fill-rule="evenodd" clip-rule="evenodd" d="M46.0579 23.9296C46.0579 36.6321 35.7604 46.9296 23.0579 46.9296C10.3553 46.9296 0.0578613 36.6321 0.0578613 23.9296C0.0578613 11.227 10.3553 0.929565 23.0579 0.929565C35.7604 0.929565 46.0579 11.227 46.0579 23.9296ZM29.2662 15.9226C29.2662 14.9288 30.0725 14.1233 31.0662 14.1233C32.06 14.1233 32.8662 14.9289 32.8662 15.9226C32.8662 16.9164 32.06 17.7226 31.0662 17.7226C30.0725 17.7226 29.2662 16.9164 29.2662 15.9226ZM23.0592 8.92957C18.9855 8.92957 18.4742 8.94742 16.8743 9.02016C15.2774 9.09336 14.1873 9.34611 13.2336 9.71706C12.2469 10.1002 11.4101 10.6127 10.5764 11.4467C9.74191 12.2805 9.22936 13.1174 8.84506 14.1036C8.47306 15.0576 8.22001 16.1481 8.14816 17.7442C8.07661 19.3443 8.05786 19.8558 8.05786 23.9296C8.05786 28.0034 8.07586 28.5131 8.14846 30.113C8.22196 31.7098 8.47471 32.7999 8.84536 33.7536C9.22876 34.7403 9.74131 35.5771 10.5753 36.4108C11.4089 37.2452 12.2457 37.759 13.2317 38.1421C14.1861 38.513 15.2763 38.7658 16.8729 38.839C18.473 38.9117 18.9839 38.9296 23.0574 38.9296C27.1316 38.9296 27.6413 38.9117 29.2412 38.839C30.8381 38.7658 31.9293 38.513 32.8838 38.1421C33.87 37.759 34.7057 37.2452 35.5391 36.4108C36.3735 35.5771 36.8859 34.7403 37.2704 33.754C37.6391 32.7999 37.8923 31.7095 37.9673 30.1133C38.0391 28.5134 38.0579 28.0034 38.0579 23.9296C38.0579 19.8558 38.0391 19.3446 37.9673 17.7445C37.8923 16.1476 37.6391 15.0578 37.2704 14.1041C36.8859 13.1174 36.3735 12.2805 35.5391 11.4467C34.7048 10.6124 33.8703 10.0999 32.8829 9.71721C31.9266 9.34611 30.836 9.09321 29.2391 9.02016C27.639 8.94742 27.1296 8.92957 23.0546 8.92957H23.0592ZM23.0592 11.6327L22.5593 11.6325H22.5576C22.2549 11.6324 21.9744 11.6323 21.7136 11.6327V11.6289C18.918 11.6321 18.3818 11.6508 16.998 11.7134C15.5355 11.7806 14.7414 12.0243 14.2127 12.2306C13.5126 12.503 13.0127 12.828 12.4877 13.353C11.9625 13.878 11.637 14.378 11.3651 15.078C11.1597 15.6067 10.9154 16.4005 10.8485 17.863C10.7766 19.4443 10.7622 19.9168 10.7622 23.9224C10.7622 27.9281 10.7766 28.403 10.8485 29.9843C10.9151 31.4467 11.1597 32.2405 11.3651 32.7687C11.6376 33.469 11.9625 33.9678 12.4875 34.4928C13.0125 35.0178 13.5126 35.3427 14.2125 35.6146C14.7417 35.8199 15.5355 36.0643 16.998 36.1318C18.5792 36.2036 19.0539 36.2192 23.0592 36.2192C27.0644 36.2192 27.5393 36.2036 29.1206 36.1318C30.5831 36.0649 31.3775 35.8211 31.9056 35.6149C32.606 35.343 33.1044 35.0181 33.6294 34.4931C34.1544 33.9684 34.4801 33.4699 34.7519 32.7699C34.9572 32.2417 35.2016 31.4479 35.2685 29.9855C35.3403 28.4043 35.3559 27.9293 35.3559 23.9261C35.3559 19.923 35.3403 19.4481 35.2685 17.8668C35.2019 16.4043 34.9572 15.6105 34.7519 15.0825C34.4793 14.3825 34.1544 13.8825 33.6294 13.3575C33.1047 12.8324 32.6057 12.5073 31.9056 12.2355C31.3769 12.0302 30.5831 11.7858 29.1206 11.7189C27.539 11.6471 27.0644 11.6327 23.0592 11.6327ZM15.3561 23.9296C15.3561 19.6755 18.8052 16.2264 23.0592 16.2264C27.3134 16.2264 30.7613 19.6756 30.7613 23.9296C30.7613 28.1837 27.3134 31.6311 23.0592 31.6311C18.8052 31.6311 15.3561 28.1837 15.3561 23.9296ZM23.0592 18.9295C25.8206 18.9295 28.0593 21.1679 28.0593 23.9296C28.0593 26.6909 25.8206 28.9296 23.0592 28.9296C20.2977 28.9296 18.0593 26.6909 18.0593 23.9296C18.0593 21.1679 20.2977 18.9295 23.0592 18.9295Z" fill="url(#paint0_radial_261_427)"/>
<path fill-rule="evenodd" clip-rule="evenodd" d="M46.0579 23.9296C46.0579 36.6321 35.7604 46.9296 23.0579 46.9296C10.3553 46.9296 0.0578613 36.6321 0.0578613 23.9296C0.0578613 11.227 10.3553 0.929565 23.0579 0.929565C35.7604 0.929565 46.0579 11.227 46.0579 23.9296ZM29.2662 15.9226C29.2662 14.9288 30.0725 14.1233 31.0662 14.1233C32.06 14.1233 32.8662 14.9289 32.8662 15.9226C32.8662 16.9164 32.06 17.7226 31.0662 17.7226C30.0725 17.7226 29.2662 16.9164 29.2662 15.9226ZM23.0592 8.92957C18.9855 8.92957 18.4742 8.94742 16.8743 9.02016C15.2774 9.09336 14.1873 9.34611 13.2336 9.71706C12.2469 10.1002 11.4101 10.6127 10.5764 11.4467C9.74191 12.2805 9.22936 13.1174 8.84506 14.1036C8.47306 15.0576 8.22001 16.1481 8.14816 17.7442C8.07661 19.3443 8.05786 19.8558 8.05786 23.9296C8.05786 28.0034 8.07586 28.5131 8.14846 30.113C8.22196 31.7098 8.47471 32.7999 8.84536 33.7536C9.22876 34.7403 9.74131 35.5771 10.5753 36.4108C11.4089 37.2452 12.2457 37.759 13.2317 38.1421C14.1861 38.513 15.2763 38.7658 16.8729 38.839C18.473 38.9117 18.9839 38.9296 23.0574 38.9296C27.1316 38.9296 27.6413 38.9117 29.2412 38.839C30.8381 38.7658 31.9293 38.513 32.8838 38.1421C33.87 37.759 34.7057 37.2452 35.5391 36.4108C36.3735 35.5771 36.8859 34.7403 37.2704 33.754C37.6391 32.7999 37.8923 31.7095 37.9673 30.1133C38.0391 28.5134 38.0579 28.0034 38.0579 23.9296C38.0579 19.8558 38.0391 19.3446 37.9673 17.7445C37.8923 16.1476 37.6391 15.0578 37.2704 14.1041C36.8859 13.1174 36.3735 12.2805 35.5391 11.4467C34.7048 10.6124 33.8703 10.0999 32.8829 9.71721C31.9266 9.34611 30.836 9.09321 29.2391 9.02016C27.639 8.94742 27.1296 8.92957 23.0546 8.92957H23.0592ZM23.0592 11.6327L22.5593 11.6325H22.5576C22.2549 11.6324 21.9744 11.6323 21.7136 11.6327V11.6289C18.918 11.6321 18.3818 11.6508 16.998 11.7134C15.5355 11.7806 14.7414 12.0243 14.2127 12.2306C13.5126 12.503 13.0127 12.828 12.4877 13.353C11.9625 13.878 11.637 14.378 11.3651 15.078C11.1597 15.6067 10.9154 16.4005 10.8485 17.863C10.7766 19.4443 10.7622 19.9168 10.7622 23.9224C10.7622 27.9281 10.7766 28.403 10.8485 29.9843C10.9151 31.4467 11.1597 32.2405 11.3651 32.7687C11.6376 33.469 11.9625 33.9678 12.4875 34.4928C13.0125 35.0178 13.5126 35.3427 14.2125 35.6146C14.7417 35.8199 15.5355 36.0643 16.998 36.1318C18.5792 36.2036 19.0539 36.2192 23.0592 36.2192C27.0644 36.2192 27.5393 36.2036 29.1206 36.1318C30.5831 36.0649 31.3775 35.8211 31.9056 35.6149C32.606 35.343 33.1044 35.0181 33.6294 34.4931C34.1544 33.9684 34.4801 33.4699 34.7519 32.7699C34.9572 32.2417 35.2016 31.4479 35.2685 29.9855C35.3403 28.4043 35.3559 27.9293 35.3559 23.9261C35.3559 19.923 35.3403 19.4481 35.2685 17.8668C35.2019 16.4043 34.9572 15.6105 34.7519 15.0825C34.4793 14.3825 34.1544 13.8825 33.6294 13.3575C33.1047 12.8324 32.6057 12.5073 31.9056 12.2355C31.3769 12.0302 30.5831 11.7858 29.1206 11.7189C27.539 11.6471 27.0644 11.6327 23.0592 11.6327ZM15.3561 23.9296C15.3561 19.6755 18.8052 16.2264 23.0592 16.2264C27.3134 16.2264 30.7613 19.6756 30.7613 23.9296C30.7613 28.1837 27.3134 31.6311 23.0592 31.6311C18.8052 31.6311 15.3561 28.1837 15.3561 23.9296ZM23.0592 18.9295C25.8206 18.9295 28.0593 21.1679 28.0593 23.9296C28.0593 26.6909 25.8206 28.9296 23.0592 28.9296C20.2977 28.9296 18.0593 26.6909 18.0593 23.9296C18.0593 21.1679 20.2977 18.9295 23.0592 18.9295Z" fill="url(#paint1_radial_261_427)"/>
<defs>
<radialGradient id="paint0_radial_261_427" cx="0" cy="0" r="1" gradientUnits="userSpaceOnUse" gradientTransform="translate(12.2766 50.4725) rotate(-90) scale(45.5894 42.4018)">
<stop stop-color="#FFDD55"/>
<stop offset="0.1" stop-color="#FFDD55"/>
<stop offset="0.5" stop-color="#FF543E"/>
<stop offset="1" stop-color="#C837AB"/>
</radialGradient>
<radialGradient id="paint1_radial_261_427" cx="0" cy="0" r="1" gradientUnits="userSpaceOnUse" gradientTransform="translate(-7.64732 4.24318) rotate(78.681) scale(20.3787 84.0017)">
<stop stop-color="#3771C8"/>
<stop offset="0.128" stop-color="#3771C8"/>
<stop offset="1" stop-color="#6600FF" stop-opacity="0"/>
</radialGradient>
</defs>
</svg>
